<?xml version="1.0" standalone="no"?>
<!DOCTYPE svg PUBLIC "-//W3C//DTD SVG 20010904//EN"
 "http://www.w3.org/TR/2001/REC-SVG-20010904/DTD/svg10.dtd">
<svg version="1.0" xmlns="http://www.w3.org/2000/svg"
 width="512.000000pt" height="512.000000pt" viewBox="0 0 512.000000 512.000000"
 preserveAspectRatio="xMidYMid meet">

<g transform="translate(0.000000,512.000000) scale(0.100000,-0.100000)"
fill="#000000" stroke="none">
<path d="M2935 5018 c55 -48 120 -144 130 -190 5 -21 16 -34 36 -41 16 -7 29
-19 29 -28 0 -30 -42 -203 -51 -214 -5 -5 -27 -8 -49 -6 -39 2 -40 1 -40 -28
l0 -31 700 0 699 0 31 45 c48 70 70 58 70 -36 l0 -49 160 0 160 0 0 -40 0 -40
-160 0 -160 0 0 -74 c0 -49 -4 -77 -13 -85 -10 -7 -138 -12 -412 -13 l-399 -3
-18 -85 c-11 -47 -25 -95 -33 -107 -20 -31 -19 -44 15 -188 17 -69 30 -134 30
-144 0 -14 -25 -23 -142 -50 -79 -17 -148 -31 -154 -31 -15 0 -21 15 -29 74
-4 27 -12 45 -18 43 -6 -2 -31 -50 -55 -108 -23 -57 -53 -114 -66 -127 -28
-28 -144 -72 -190 -72 -23 0 -68 19 -139 60 -57 33 -109 60 -114 60 -14 0 -83
-77 -83 -92 0 -6 12 -27 27 -47 l27 -35 -126 -246 -125 -245 -43 -7 c-24 -4
-44 -9 -46 -11 -2 -2 1 -61 6 -131 8 -116 11 -131 33 -155 27 -28 373 -649
440 -789 41 -84 42 -90 42 -187 l0 -100 -204 -495 -204 -495 -73 -75 c-41 -42
-74 -79 -74 -84 0 -15 73 -123 89 -133 9 -5 74 -27 145 -49 102 -31 131 -44
139 -61 l10 -23 1087 0 1088 0 53 28 c43 22 59 38 81 81 l28 53 0 2343 0 2343
-28 53 c-22 43 -38 59 -81 81 l-53 28 -1011 0 -1010 0 48 -42z"/>
</g>
</svg>
