<?xml version="1.0" standalone="no"?>
<!DOCTYPE svg PUBLIC "-//W3C//DTD SVG 20010904//EN"
 "http://www.w3.org/TR/2001/REC-SVG-20010904/DTD/svg10.dtd">
<svg version="1.0" xmlns="http://www.w3.org/2000/svg"
 width="1024.000000pt" height="1024.000000pt" viewBox="0 0 1024.000000 1024.000000"
 preserveAspectRatio="xMidYMid meet">

<g transform="translate(0.000000,1024.000000) scale(0.100000,-0.100000)"
fill="#000000" stroke="none">
<path d="M5232 9265 c0 -16 2 -22 5 -12 2 9 2 23 0 30 -3 6 -5 -1 -5 -18z"/>
<path d="M5222 9195 c0 -16 2 -22 5 -12 2 9 2 23 0 30 -3 6 -5 -1 -5 -18z"/>
<path d="M5212 9125 c0 -16 2 -22 5 -12 2 9 2 23 0 30 -3 6 -5 -1 -5 -18z"/>
<path d="M5202 9055 c0 -16 2 -22 5 -12 2 9 2 23 0 30 -3 6 -5 -1 -5 -18z"/>
<path d="M5192 8985 c0 -16 2 -22 5 -12 2 9 2 23 0 30 -3 6 -5 -1 -5 -18z"/>
<path d="M5182 8915 c0 -16 2 -22 5 -12 2 9 2 23 0 30 -3 6 -5 -1 -5 -18z"/>
<path d="M5172 8845 c0 -16 2 -22 5 -12 2 9 2 23 0 30 -3 6 -5 -1 -5 -18z"/>
<path d="M5162 8775 c0 -16 2 -22 5 -12 2 9 2 23 0 30 -3 6 -5 -1 -5 -18z"/>
<path d="M5152 8705 c0 -16 2 -22 5 -12 2 9 2 23 0 30 -3 6 -5 -1 -5 -18z"/>
<path d="M5142 8635 c0 -16 2 -22 5 -12 2 9 2 23 0 30 -3 6 -5 -1 -5 -18z"/>
<path d="M5132 8565 c0 -16 2 -22 5 -12 2 9 2 23 0 30 -3 6 -5 -1 -5 -18z"/>
<path d="M5122 8495 c0 -16 2 -22 5 -12 2 9 2 23 0 30 -3 6 -5 -1 -5 -18z"/>
<path d="M5112 8425 c0 -16 2 -22 5 -12 2 9 2 23 0 30 -3 6 -5 -1 -5 -18z"/>
<path d="M5102 8355 c0 -16 2 -22 5 -12 2 9 2 23 0 30 -3 6 -5 -1 -5 -18z"/>
<path d="M5092 8285 c0 -16 2 -22 5 -12 2 9 2 23 0 30 -3 6 -5 -1 -5 -18z"/>
<path d="M5082 8215 c0 -16 2 -22 5 -12 2 9 2 23 0 30 -3 6 -5 -1 -5 -18z"/>
<path d="M5072 8145 c0 -16 2 -22 5 -12 2 9 2 23 0 30 -3 6 -5 -1 -5 -18z"/>
<path d="M5062 8075 c0 -16 2 -22 5 -12 2 9 2 23 0 30 -3 6 -5 -1 -5 -18z"/>
<path d="M5052 8010 c0 -19 2 -27 5 -17 2 9 2 25 0 35 -3 9 -5 1 -5 -18z"/>
<path d="M5042 7935 c0 -16 2 -22 5 -12 2 9 2 23 0 30 -3 6 -5 -1 -5 -18z"/>
<path d="M5032 7870 c0 -19 2 -27 5 -17 2 9 2 25 0 35 -3 9 -5 1 -5 -18z"/>
<path d="M5022 7800 c0 -19 2 -27 5 -17 2 9 2 25 0 35 -3 9 -5 1 -5 -18z"/>
<path d="M5012 7730 c0 -19 2 -27 5 -17 2 9 2 25 0 35 -3 9 -5 1 -5 -18z"/>
<path d="M5002 7660 c0 -19 2 -27 5 -17 2 9 2 25 0 35 -3 9 -5 1 -5 -18z"/>
<path d="M8935 7593 c-26 -92 -92 -268 -135 -360 -22 -47 -40 -87 -40 -90 0
-16 -145 -265 -216 -370 -336 -498 -829 -937 -1434 -1275 -225 -126 -192 -117
-333 -97 -67 10 -125 18 -128 18 -4 1 -10 18 -14 39 -28 150 -135 393 -241
543 -114 163 -316 349 -477 439 -32 18 -60 30 -64 27 -9 -10 -16 -133 -9 -171
9 -48 51 -94 160 -175 267 -198 449 -442 555 -743 17 -48 37 -101 45 -117 23
-43 71 -79 129 -95 29 -8 677 -104 1441 -212 1315 -187 1391 -197 1429 -183
56 19 84 63 92 144 4 36 11 65 16 65 12 0 11 273 -1 445 -44 594 -189 1149
-439 1670 -72 150 -202 383 -275 491 l-44 66 -17 -59z"/>
<path d="M4992 7590 c0 -19 2 -27 5 -17 2 9 2 25 0 35 -3 9 -5 1 -5 -18z"/>
<path d="M4982 7520 c0 -19 2 -27 5 -17 2 9 2 25 0 35 -3 9 -5 1 -5 -18z"/>
<path d="M4972 7450 c0 -19 2 -27 5 -17 2 9 2 25 0 35 -3 9 -5 1 -5 -18z"/>
<path d="M4912 7039 c-30 -206 -56 -384 -59 -396 -4 -17 -16 -24 -56 -33 -155
-32 -354 -119 -508 -221 -137 -91 -327 -284 -415 -420 -38 -58 -74 -114 -80
-124 -10 -18 -39 -15 -655 73 -1894 269 -2340 332 -2363 332 -30 0 -46 -40
-46 -115 0 -59 21 -95 72 -121 27 -14 2789 -414 2860 -414 37 0 96 25 127 53
13 12 54 63 92 113 208 277 436 446 754 560 125 44 182 89 202 159 15 49 135
891 131 912 -2 9 -27 -152 -56 -358z"/>
<path d="M555 4920 c-12 -31 -9 -262 5 -425 95 -1097 571 -2106 1356 -2875
304 -298 578 -505 944 -716 326 -187 883 -414 1016 -414 54 0 105 41 122 97
13 44 388 2667 402 2818 6 55 17 158 26 230 15 123 15 130 -1 140 -174 101
-324 222 -436 350 -74 86 -180 250 -229 358 l-42 92 -97 -7 c-53 -3 -267 -9
-476 -13 -613 -12 -1176 21 -1825 106 -213 28 -599 89 -717 115 -20 4 -23 11
-24 57 -1 28 -4 66 -8 82 l-7 30 -9 -25z"/>
<path d="M6455 4344 c-209 -346 -566 -613 -935 -700 -41 -9 -76 -18 -78 -19
-6 -5 -62 -381 -246 -1675 -206 -1442 -214 -1515 -176 -1578 36 -59 69 -66
285 -59 1000 32 1975 410 2770 1076 130 108 446 427 557 561 377 457 652 951
833 1496 41 122 46 147 42 204 -3 52 3 89 29 185 19 66 34 127 34 136 0 13
-227 48 -1497 228 -824 117 -1514 215 -1534 218 -36 5 -36 5 -84 -73z"/>
</g>
</svg>
