<?xml version="1.0" standalone="no"?>
<!DOCTYPE svg PUBLIC "-//W3C//DTD SVG 20010904//EN"
 "http://www.w3.org/TR/2001/REC-SVG-20010904/DTD/svg10.dtd">
<svg version="1.0" xmlns="http://www.w3.org/2000/svg"
 width="512.000000pt" height="512.000000pt" viewBox="0 0 512.000000 512.000000"
 preserveAspectRatio="xMidYMid meet">

<g transform="translate(0.000000,512.000000) scale(0.100000,-0.100000)"
fill="#000000" stroke="none">
<path d="M211 5048 c-30 -7 -56 -23 -86 -52 -56 -57 -65 -100 -65 -316 l0
-170 49 0 c30 0 51 -5 54 -12 4 -10 6 -10 6 0 1 14 101 18 101 3 0 -5 11 -12
25 -15 l25 -6 0 -160 0 -160 -130 0 -130 0 0 -480 0 -480 130 0 130 0 0 -160
0 -160 -130 0 -130 0 2 -1342 c3 -1452 0 -1360 57 -1421 54 -59 67 -62 304
-65 l217 -4 0 136 0 136 144 0 c79 0 150 -2 158 -5 10 -4 12 -34 11 -135 l-3
-130 485 0 485 0 0 135 0 135 161 0 161 0 -7 -135 -7 -135 1340 0 1340 0 53
28 c43 22 59 38 81 81 l28 53 0 378 0 378 -277 1 c-161 0 -284 -4 -295 -10
-17 -9 -18 -1 -18 156 l0 165 295 0 295 0 0 966 0 966 -52 -2 c-29 -2 -90 -2
-135 -1 l-83 1 0 155 0 155 135 0 135 0 0 673 c0 743 0 740 -62 804 -63 65
-27 63 -1115 63 l-983 0 0 -112 0 -113 107 3 c105 3 183 -9 183 -28 0 -6 64
-10 158 -10 86 0 163 -4 170 -9 10 -6 12 -42 10 -154 -2 -115 0 -148 10 -152
8 -3 76 -5 153 -5 l139 0 0 -160 0 -160 -177 -2 c-211 -3 -376 -3 -610 0
l-173 2 0 320 0 320 -160 0 -160 0 0 130 0 130 -1152 -1 c-707 -1 -1170 -5
-1197 -11z m552 -230 c37 -1 67 -6 67 -10 0 -5 173 -8 385 -8 l385 0 0 -161 0
-162 -297 6 c-164 4 -308 4 -320 1 -23 -6 -23 -9 -23 -165 l0 -159 -160 0
-160 0 0 336 0 336 28 -6 c15 -3 57 -7 95 -8z m517 -1122 c0 -79 -2 -150 -5
-158 -4 -10 -36 -12 -143 -11 -75 2 -142 5 -149 7 -15 6 -23 294 -8 300 6 3
76 5 158 5 l147 1 0 -144z m290 -510 c0 -8 7 -17 16 -20 13 -5 15 -24 13 -118
-2 -62 -5 -119 -7 -125 -7 -23 -27 -14 -39 17 l-11 30 -102 0 c-56 0 -111 5
-122 11 -13 7 -18 7 -14 1 3 -6 2 -13 -3 -16 -15 -10 -21 22 -21 115 0 69 3
89 14 89 8 0 16 7 20 15 8 21 256 22 256 1z m1310 -101 l0 -115 -320 0 -320 0
0 115 0 115 320 0 320 0 0 -115z m960 0 l0 -115 -320 0 -320 0 0 115 0 115
320 0 320 0 0 -115z m-3281 -167 c0 -7 -6 -27 -12 -45 l-12 -32 -87 2 c-96 2
-92 -2 -67 65 8 20 15 22 94 22 62 0 85 -3 84 -12z m441 0 c0 -7 -9 -49 -18
-93 l-18 -80 -43 -3 -43 -3 2 38 c4 60 3 63 -36 63 l-36 0 7 37 c4 21 9 41 11
45 3 5 43 8 90 8 61 0 84 -3 84 -12z m250 0 c0 -7 -3 -29 -6 -49 -6 -34 -10
-38 -48 -45 l-41 -8 38 -4 c20 -2 37 -7 37 -12 0 -40 -82 -425 -92 -432 -16
-9 -35 -10 -66 -1 -21 5 -23 11 -20 44 4 46 -7 42 -16 -6 -6 -32 -10 -35 -41
-35 -21 0 -35 5 -35 12 0 12 108 511 115 536 3 8 30 12 90 12 61 0 85 -3 85
-12z m256 -4 c-3 -9 -6 -28 -6 -44 0 -27 -2 -28 -35 -23 -22 3 -35 2 -35 -5 0
-6 25 -12 58 -14 l57 -3 -1 -52 c-2 -52 -1 -53 27 -53 16 0 32 0 37 0 4 -1 10
20 14 46 4 26 12 50 18 54 7 4 32 5 57 2 33 -3 44 -2 39 7 -4 6 -19 11 -34 11
-58 0 -68 8 -64 51 l4 39 89 0 89 0 0 -29 c0 -50 -16 -79 -47 -84 -26 -4 -26
-4 5 -6 33 -1 34 -2 28 -38 -3 -21 -13 -105 -21 -188 -23 -225 -21 -215 -56
-215 l-30 0 7 58 c11 80 11 115 -1 119 -6 2 -10 -23 -11 -60 0 -34 -4 -75 -8
-90 -6 -25 -10 -27 -62 -27 l-56 0 7 67 c10 92 10 93 64 94 l46 1 -40 9 c-22
4 -57 8 -79 8 l-39 1 7 60 7 60 -35 0 c-38 0 -40 -3 -51 -82 l-6 -46 -92 4
c-50 3 -93 6 -94 8 -1 1 13 85 32 187 19 101 35 185 35 187 0 1 41 2 91 2 79
0 90 -2 85 -16z m824 -17 c0 -64 -12 -69 -142 -65 l-116 3 -6 -35 c-13 -79
-12 -80 54 -80 l60 0 0 -46 c0 -27 4 -43 10 -39 6 3 10 24 10 46 l0 39 60 0
60 0 0 -55 0 -55 -134 0 -134 0 -5 -57 c-2 -32 -3 -61 0 -65 2 -5 49 -8 104
-8 59 0 99 -4 99 -10 0 -5 -16 -10 -35 -10 -38 0 -55 -20 -55 -64 l0 -26 -110
0 -109 0 -3 58 -3 57 -35 3 c-19 2 -38 7 -42 11 -4 3 -1 63 7 131 8 69 15 126
15 128 0 1 20 2 44 2 25 0 48 5 51 10 4 6 -13 10 -45 10 l-51 0 6 53 c13 108
-14 97 230 97 l215 0 0 -33z m504 -8 c4 -23 4 -44 1 -48 -4 -3 -61 -7 -128 -7
l-122 -2 -3 -49 -3 -50 -70 12 c-84 15 -81 6 4 -15 l62 -15 3 -117 3 -118 134
0 135 0 0 -55 0 -55 -39 0 c-39 0 -40 1 -49 43 l-10 42 -1 -42 -1 -43 -95 0
c-57 0 -95 4 -95 10 0 6 -18 10 -39 10 -22 0 -43 -4 -46 -10 -3 -5 -27 -10
-52 -10 l-46 0 7 46 c3 26 6 84 6 130 0 77 2 84 20 84 11 0 20 5 20 11 0 7 -9
9 -21 6 -21 -6 -21 -4 -15 55 3 34 6 99 6 144 l0 84 214 0 213 0 7 -41z m140
4 c3 -21 6 -57 6 -80 0 -45 -5 -48 -47 -37 -21 6 -23 12 -23 80 l0 74 29 0
c25 0 29 -4 35 -37z m370 -10 c3 -27 8 -72 12 -100 l6 -53 -31 0 c-24 0 -31
-4 -31 -20 0 -16 -7 -20 -32 -20 -27 -1 -30 -2 -16 -11 10 -5 40 -13 66 -16
l49 -5 12 -107 c6 -58 11 -123 11 -143 l0 -38 -55 0 c-37 0 -55 4 -56 13 0 10
-2 10 -6 0 -2 -7 -20 -13 -39 -13 -30 0 -34 3 -34 28 0 15 -3 44 -6 65 l-7 37
57 0 c31 0 56 3 56 8 0 4 -25 7 -55 5 l-55 -2 0 34 c0 53 -8 65 -46 65 -31 0
-34 -3 -34 -30 0 -29 0 -29 -67 -32 l-68 -3 -6 -65 c-6 -70 -17 -110 -29 -110
-10 0 -19 99 -22 255 l-2 130 28 3 c16 2 36 -4 46 -13 12 -11 30 -15 52 -12
l33 3 -32 8 c-37 10 -39 15 -48 114 l-7 72 175 0 175 0 6 -47z m535 -140 c18
-103 35 -200 38 -215 5 -27 4 -28 -38 -28 -91 0 -148 12 -154 31 -5 14 -16 19
-42 19 l-36 0 7 -62 c4 -35 10 -75 13 -90 l5 -27 -101 0 c-89 0 -101 2 -101
17 0 9 -11 123 -25 252 -14 129 -25 247 -25 263 l0 27 213 0 214 0 32 -187z
m274 167 c3 -11 17 -24 31 -30 14 -5 26 -11 26 -14 0 -2 3 -12 7 -22 6 -15 0
-16 -46 -12 -49 5 -52 4 -47 -16 2 -12 8 -38 11 -58 l7 -38 68 0 68 0 6 -31
c15 -75 12 -79 -54 -79 -42 0 -60 -4 -60 -12 1 -7 11 -61 24 -120 l24 -108
-98 0 -98 0 -6 28 c-3 15 -24 131 -46 257 -22 127 -42 240 -45 253 -5 22 -4
22 109 22 105 0 114 -2 119 -20z m212 -20 c4 -21 4 -44 0 -50 -3 -5 -31 -10
-61 -10 -51 0 -56 2 -72 30 -9 17 -27 33 -39 36 -12 3 -24 12 -27 20 -4 11 13
14 93 14 l99 0 7 -40z m403 0 c5 -22 8 -48 6 -58 -4 -14 48 -214 72 -275 5
-15 -3 -17 -82 -17 -49 0 -94 4 -100 8 -6 4 -26 66 -44 137 -33 129 -59 199
-60 163 0 -15 -9 -18 -50 -18 -54 0 -57 3 -74 73 l-6 27 164 0 164 0 10 -40z
m102 15 c5 -14 13 -37 16 -50 6 -24 4 -25 -35 -25 -38 0 -43 3 -57 35 -23 56
-19 65 26 65 34 0 42 -4 50 -25z m-4100 -34 c0 -6 -16 -11 -35 -11 -25 0 -35
-4 -35 -16 0 -18 -16 -10 -29 15 -9 16 -4 18 45 20 32 1 54 -2 54 -8z m-184
-73 c-3 -18 -9 -45 -12 -60 l-6 -28 195 7 196 6 -9 -39 c-58 -252 -71 -308
-75 -313 -9 -8 -123 -14 -159 -7 l-34 6 29 113 c16 61 29 114 29 117 0 3 -16
5 -35 6 -34 0 -35 -1 -51 -58 l-17 -58 -62 0 -63 0 14 47 c19 64 18 68 -21 69
-34 0 -36 -2 -47 -44 -12 -47 -39 -66 -87 -60 -23 3 -26 7 -23 36 2 29 0 32
-27 32 -17 0 -32 4 -35 9 -5 7 57 222 71 244 2 4 56 7 120 7 l116 0 -7 -32z
m279 10 c9 -23 -11 -73 -30 -76 -9 -2 -41 -1 -70 3 l-52 6 11 40 10 39 63 0
c42 0 65 -4 68 -12z m3548 -117 c3 -16 9 -40 13 -55 6 -26 6 -26 -54 -26 l-59
0 -7 38 c-12 72 -11 72 48 72 51 0 54 -1 59 -29z m-4089 -140 c3 -5 -1 -28 -9
-51 -26 -75 -23 -80 44 -80 55 0 59 -1 54 -21 -7 -27 -42 -39 -111 -38 -93 1
-93 0 -60 107 26 83 31 92 53 92 13 0 26 -4 29 -9z m1105 -27 c10 -3 12 -17 7
-62 -11 -92 -11 -92 -67 -92 -44 0 -49 2 -50 23 l0 22 -11 -22 c-8 -17 -20
-23 -45 -23 -41 0 -41 -1 -8 145 4 19 11 20 82 17 43 -2 84 -5 92 -8z m1685
-15 c3 -17 6 -56 6 -85 l0 -54 -80 0 -81 0 16 30 c8 16 15 51 15 78 0 27 3 52
7 55 3 4 30 7 58 7 51 0 53 -1 59 -31z m1761 -51 c9 -34 19 -68 22 -75 4 -10
-17 -13 -95 -13 l-100 0 -16 65 c-9 35 -16 69 -16 75 0 6 35 10 94 10 l93 0
18 -62z m-1012 26 c31 -3 59 -9 61 -13 2 -3 7 -27 11 -53 l7 -48 -96 0 c-107
0 -101 -4 -111 78 l-6 54 38 -6 c21 -3 64 -8 96 -12z m-3434 -24 c-10 -27 -15
-30 -55 -30 -31 0 -46 5 -50 15 -11 27 16 45 67 45 l48 0 -10 -30z m1491 -35
l0 -55 -40 0 c-44 0 -48 9 -34 79 6 27 10 31 40 31 l34 0 0 -55z m390 0 l0
-55 -66 0 -65 0 3 33 c3 29 6 32 42 35 28 2 40 9 43 23 3 10 14 19 24 19 16 0
19 -8 19 -55z m2094 -460 c4 -12 -5 -15 -50 -15 -47 0 -53 2 -42 15 17 19 84
20 92 0z m-1203 -165 c278 0 299 1 300 18 3 30 17 -80 18 -135 1 -28 -1 -57
-4 -65 -4 -10 -65 -13 -318 -11 l-312 2 -3 43 c-4 51 10 204 16 171 l3 -23
300 0z m-1603 -96 l-3 -96 -312 -1 c-252 -2 -314 1 -318 11 -3 8 -5 51 -5 96
l0 83 320 1 321 1 -3 -95z m613 79 c0 -5 2 -17 4 -28 3 -11 6 -43 8 -71 3 -29
7 -56 11 -62 11 -18 -23 -22 -170 -22 l-144 0 0 -144 c0 -79 -2 -150 -5 -158
-4 -10 -36 -12 -147 -10 -78 1 -145 5 -149 10 -4 4 -9 73 -11 155 l-3 147 158
0 157 0 0 95 0 95 145 0 c80 0 145 -3 146 -7z m2348 -65 c1 20 21 33 21 13 0
-5 12 -9 28 -8 15 1 64 0 108 -1 l82 -2 -2 -41 c-2 -30 -9 -47 -25 -60 -25
-21 -97 -27 -85 -8 5 8 1 8 -14 0 -26 -14 -45 -14 -37 -1 3 6 -1 10 -9 10 -8
0 -18 -4 -21 -10 -9 -14 -68 -13 -83 2 -18 18 -16 88 3 88 9 0 15 10 16 23 1
21 1 21 9 -3 8 -24 8 -24 9 -2z m-2319 -582 c0 -79 -2 -150 -5 -158 -4 -10
-34 -12 -133 -11 -189 4 -172 -11 -172 147 0 74 -3 141 -6 150 -5 14 12 16
155 16 l161 0 0 -144z m1280 -336 l0 -160 -160 0 -160 0 0 -155 0 -155 -152 0
c-84 -1 -226 -2 -315 -3 -128 -2 -164 1 -168 11 -7 19 -6 267 1 286 5 14 43
16 320 16 l314 0 0 160 0 160 160 0 160 0 0 -160z m951 88 c0 -40 1 -110 2
-155 2 -61 -2 -84 -11 -88 -8 -3 -79 -5 -158 -5 l-144 0 0 160 0 160 155 0
155 0 1 -72z m-3191 -395 c0 -82 -4 -152 -8 -158 -4 -6 -69 -10 -160 -10
l-152 0 0 158 0 157 160 0 160 0 0 -147z"/>
<path d="M1510 2996 c0 -2 9 -6 20 -9 11 -3 18 -1 14 4 -5 9 -34 13 -34 5z"/>
<path d="M3097 2833 c-3 -4 -2 -32 0 -60 l6 -53 36 0 36 0 -5 58 c-5 55 -6 57
-37 60 -17 2 -33 -1 -36 -5z"/>
<path d="M3540 2844 c-12 -4 -15 -14 -12 -39 4 -33 6 -35 43 -35 21 0 39 -4
39 -10 0 -5 -7 -10 -15 -10 -19 0 -21 -78 -2 -104 15 -20 51 -11 43 10 -4 10
4 14 28 14 25 0 35 -5 39 -19 6 -24 47 -17 47 8 0 53 -14 91 -31 91 -11 0 -19
5 -19 10 0 6 16 10 36 10 35 0 35 1 32 38 -3 36 -4 37 -43 37 -38 -1 -40 -3
-43 -33 -3 -28 -7 -32 -32 -32 -25 0 -30 5 -36 35 -5 30 -10 35 -33 34 -14 -1
-33 -3 -41 -5z"/>
<path d="M4762 1634 c-7 -8 -8 -14 -3 -14 10 0 25 19 20 25 -2 1 -10 -3 -17
-11z"/>
</g>
</svg>
