<?xml version="1.0" standalone="no"?>
<!DOCTYPE svg PUBLIC "-//W3C//DTD SVG 20010904//EN"
 "http://www.w3.org/TR/2001/REC-SVG-20010904/DTD/svg10.dtd">
<svg version="1.0" xmlns="http://www.w3.org/2000/svg"
 width="512.000000pt" height="512.000000pt" viewBox="0 0 512.000000 512.000000"
 preserveAspectRatio="xMidYMid meet">

<g transform="translate(0.000000,512.000000) scale(0.100000,-0.100000)"
fill="#000000" stroke="none">
<path d="M2509 4790 l-366 -6 -71 -55 c-39 -30 -71 -60 -71 -66 -1 -9 -24 -13
-83 -13 -46 0 -162 -3 -258 -7 l-174 -6 17 26 c10 15 16 27 15 27 -63 6 -1135
27 -1139 22 -4 -4 -12 -47 -18 -95 l-12 -89 39 -76 38 -77 -17 -145 c-10 -80
-32 -203 -50 -274 -32 -127 -32 -131 -20 -225 7 -53 17 -150 22 -216 8 -87 21
-158 51 -259 39 -134 39 -141 28 -202 -8 -41 -10 -93 -5 -142 7 -71 10 -80 46
-120 48 -51 56 -70 64 -159 8 -78 15 -71 -104 -115 l-53 -20 6 -97 c3 -53 8
-169 12 -259 l7 -163 54 -41 c35 -27 52 -46 49 -57 -2 -9 -17 -110 -32 -225
-16 -115 -33 -213 -39 -218 -5 -5 -18 -14 -27 -21 -15 -10 -19 -58 -32 -382
-9 -203 -18 -398 -21 -433 -5 -59 -4 -63 13 -57 26 8 97 -8 214 -47 l97 -33
30 23 c23 17 44 22 88 22 32 0 76 5 98 10 27 6 50 6 72 -2 31 -11 185 0 224
16 10 5 19 -1 27 -18 l11 -25 40 20 c48 23 128 25 151 4 11 -10 49 -17 114
-22 93 -6 97 -5 103 15 5 21 6 21 34 5 27 -16 30 -16 66 4 l38 21 33 -28 c29
-24 38 -27 70 -20 20 5 81 10 135 12 l97 4 63 -90 62 -89 5 44 5 44 113 3 112
3 6 -31 c4 -16 10 -30 14 -30 4 0 33 9 65 20 l59 20 37 -36 37 -37 85 52 84
52 159 11 c121 9 208 8 365 -1 222 -13 237 -11 291 37 l26 24 67 -38 68 -37
54 18 c53 18 54 18 119 -5 56 -19 76 -22 142 -16 42 4 106 14 141 23 l64 16
-28 25 c-39 33 -21 42 93 42 83 0 215 -24 355 -66 16 -5 17 15 17 319 0 178
-3 580 -7 893 l-6 570 -51 -7 c-85 -12 -86 -12 -86 21 0 19 7 34 21 42 11 7
29 27 40 44 17 27 19 51 20 175 1 79 -2 158 -6 174 -18 80 -61 194 -85 230
-52 77 -51 154 4 182 43 22 47 31 25 67 -10 17 -19 36 -19 41 0 6 22 24 49 39
56 33 50 13 76 280 9 95 15 264 15 417 0 225 -3 268 -21 344 -19 84 -20 91 -5
194 9 58 16 111 16 117 0 26 -120 63 -320 98 -113 20 -212 36 -220 36 -8 -1
-28 -19 -43 -42 -32 -46 -41 -41 -52 24 l-7 38 -167 0 c-92 0 -283 3 -423 7
l-256 6 -7 -54 c-13 -95 -13 -95 -101 -103 -42 -4 -89 -10 -104 -12 -25 -5
-28 -2 -40 39 -14 52 -15 53 -102 62 -90 10 -99 17 -65 53 29 31 34 43 15 40
-7 -1 -178 -4 -379 -8z m1183 -787 l158 -158 0 -322 c0 -211 -4 -323 -10 -323
-6 0 -191 121 -413 268 -221 148 -407 271 -413 273 -31 12 -134 86 -134 96 0
15 605 322 635 322 13 1 77 -56 177 -156z m-879 -1038 c1196 -818 1506 -1034
1507 -1051 0 -12 -22 -73 -48 -135 -27 -63 -98 -237 -157 -386 l-109 -273
-245 0 -245 0 -1356 1352 c-745 744 -1356 1358 -1358 1364 -4 16 433 164 474
161 22 -1 426 -272 1537 -1032z m-1366 -1197 c260 -260 473 -478 473 -484 0
-6 -105 -46 -234 -88 l-234 -76 -168 0 -169 0 -162 161 -162 160 79 396 c44
219 80 399 80 400 0 22 98 -70 497 -469z"/>
</g>
</svg>
