<?xml version="1.0" encoding="UTF-8"?>
<!DOCTYPE svg PUBLIC "-//W3C//DTD SVG 1.1//EN" "http://www.w3.org/Graphics/SVG/1.1/DTD/svg11.dtd">
<svg xmlns="http://www.w3.org/2000/svg" version="1.1" width="512px" height="512px" style="shape-rendering:geometricPrecision; text-rendering:geometricPrecision; image-rendering:optimizeQuality; fill-rule:evenodd; clip-rule:evenodd" xmlns:xlink="http://www.w3.org/1999/xlink">
<g><path style="opacity:0.605" fill="#e912e5" d="M 256.5,30.5 C 259.016,30.7553 261.35,31.5886 263.5,33C 323,69.1667 382.5,105.333 442,141.5C 442.667,217.5 442.667,293.5 442,369.5C 380.586,407.247 318.919,444.58 257,481.5C 194.85,444.425 132.85,407.091 71,369.5C 69.8577,330.358 69.3577,291.191 69.5,252C 69.6667,215.5 69.8333,179 70,142.5C 132.313,105.267 194.48,67.9332 256.5,30.5 Z"/></g>
<g><path style="opacity:1" fill="#fefcfe" d="M 313.5,197.5 C 313.5,238.167 313.5,278.833 313.5,319.5C 305.5,319.5 297.5,319.5 289.5,319.5C 288.833,319.5 288.5,319.167 288.5,318.5C 288.833,295.824 288.5,273.157 287.5,250.5C 286.893,250.624 286.56,250.957 286.5,251.5C 278.423,267.596 270.757,283.929 263.5,300.5C 257.833,300.5 252.167,300.5 246.5,300.5C 239.591,284.09 231.924,268.09 223.5,252.5C 223.5,252.167 223.5,251.833 223.5,251.5C 223.585,250.005 222.919,249.005 221.5,248.5C 220.5,272.157 220.167,295.824 220.5,319.5C 212.098,320.828 203.598,320.828 195,319.5C 194.333,278.833 194.333,238.167 195,197.5C 195.5,197 196,196.5 196.5,196C 205.452,195.213 214.285,195.713 223,197.5C 233.244,218.323 243.744,238.989 254.5,259.5C 265.422,238.656 276.089,217.656 286.5,196.5C 295.147,195.335 303.814,195.168 312.5,196C 313.056,196.383 313.389,196.883 313.5,197.5 Z"/></g>
<g><path style="opacity:1" fill="#fdf0fd" d="M 313.5,197.5 C 314.499,238.33 314.832,279.33 314.5,320.5C 305.983,320.826 297.65,320.493 289.5,319.5C 297.5,319.5 305.5,319.5 313.5,319.5C 313.5,278.833 313.5,238.167 313.5,197.5 Z"/></g>
<g><path style="opacity:1" fill="#f6adf5" d="M 286.5,251.5 C 286.56,250.957 286.893,250.624 287.5,250.5C 288.5,273.157 288.833,295.824 288.5,318.5C 287.833,296.167 287.167,273.833 286.5,251.5 Z"/></g>
<g><path style="opacity:1" fill="#f9c5f8" d="M 223.5,251.5 C 222.883,251.389 222.383,251.056 222,250.5C 221.5,273.498 221.333,296.498 221.5,319.5C 221.167,319.5 220.833,319.5 220.5,319.5C 220.167,295.824 220.5,272.157 221.5,248.5C 222.919,249.005 223.585,250.005 223.5,251.5 Z"/></g>
<g><path style="opacity:1" fill="#ef4beb" d="M 223.5,251.5 C 223.5,251.833 223.5,252.167 223.5,252.5C 222.833,274.833 222.167,297.167 221.5,319.5C 221.333,296.498 221.5,273.498 222,250.5C 222.383,251.056 222.883,251.389 223.5,251.5 Z"/></g>
</svg>
